<svg xmlns="http://www.w3.org/2000/svg" viewBox="0 0 750 500"><g id="freepik--background-complete--inject-2"><path d="M113.83,254.94l-13.12.27-6.67.12c-2.22,0-4.46,0-6.69,0h-.44v-.44l-.05-11.19v-.51h.5l13.24.06c4.41,0,8.83.11,13.24.16h.28v.27c0,1.9-.08,3.78-.13,5.65Zm0,0-.14-5.66c0-1.86-.11-3.7-.13-5.53l.27.27c-4.41,0-8.83.16-13.24.16l-13.24.07.5-.5-.06,11.19-.44-.45c2.18,0,4.36,0,6.55,0l6.57.12Z" style="fill:#ebebeb"></path><path d="M290.2,331l-13.12.28-6.66.11c-2.23.05-4.47,0-6.7.06h-.44V331l-.06-11.19v-.5h.5l13.24.07c4.42,0,8.83.11,13.24.16h.28v.27c0,1.9-.09,3.79-.14,5.66Zm0,0-.14-5.65c0-1.86-.11-3.71-.13-5.54l.27.28c-4.41.05-8.82.15-13.24.16l-13.24.06.5-.5L264.17,331l-.45-.44c2.18,0,4.36,0,6.55,0l6.58.11Z" style="fill:#ebebeb"></path><path d="M99.06,269.05l-13.13.27-6.66.12c-2.22,0-4.46,0-6.69.05h-.45V269l0-11.18v-.51h.5l13.24.06c4.41,0,8.82.11,13.24.16h.27v.27c0,1.89-.08,3.78-.13,5.65Zm0,0-.14-5.66c0-1.86-.12-3.7-.13-5.53l.27.27c-4.42.05-8.83.16-13.24.16l-13.24.07.5-.5L73,269l-.44-.44c2.18,0,4.36,0,6.54,0l6.58.12Z" style="fill:#ebebeb"></path><rect x="102.12" y="257.86" width="26.48" height="11.19" style="fill:#ebebeb"></rect><path d="M354.55,218.83l-13.13.28-6.66.11c-2.22.05-4.46,0-6.69.05h-.45v-.45l-.05-11.19v-.5h.51l13.24.06c4.41,0,8.82.11,13.24.17h.27v.27c0,1.9-.09,3.79-.13,5.65Zm0,0-.15-5.66c0-1.86-.11-3.7-.13-5.53l.28.27c-4.42.05-8.83.16-13.24.17l-13.24.06.5-.5-.06,11.19-.44-.45c2.18,0,4.35,0,6.54.06l6.58.11Z" style="fill:#ebebeb"></path><rect x="313.29" y="221.75" width="26.48" height="11.19" style="fill:#ebebeb"></rect><path d="M369.32,232.94l-13.13.28-6.66.11c-2.22,0-4.46,0-6.69,0h-.45v-.45l-.05-11.19v-.5h.5l13.24.06c4.41,0,8.82.11,13.24.17h.27v.27c0,1.9-.08,3.78-.13,5.65Zm0,0-.14-5.66c-.05-1.86-.12-3.7-.13-5.53l.27.27c-4.42,0-8.83.16-13.24.16l-13.24.07.5-.5-.06,11.19-.44-.45c2.18,0,4.36,0,6.54.06l6.58.11Z" style="fill:#ebebeb"></path><path d="M672.65,221.82l-13.12.28-6.67.11c-2.22,0-4.46,0-6.69.06h-.44v-.45l-.05-11.19v-.5h.5l13.24.07c4.41,0,8.83.11,13.24.16h.28v.27c0,1.9-.08,3.79-.13,5.66Zm0,0-.14-5.65c0-1.86-.11-3.71-.13-5.54l.27.28c-4.41.05-8.83.15-13.24.16l-13.24.06.5-.5,0,11.19-.45-.44c2.18,0,4.36,0,6.55.05l6.57.11Z" style="fill:#ebebeb"></path><path d="M672.65,63.61l-13.12.28-6.67.11c-2.22,0-4.46,0-6.69.06h-.44v-.45l-.05-11.19v-.5h.5l13.24.07c4.41,0,8.83.11,13.24.16h.28v.27c0,1.9-.08,3.79-.13,5.66Zm0,0L672.51,58c0-1.86-.11-3.71-.13-5.54l.27.28c-4.41,0-8.83.15-13.24.16l-13.24.06.5-.5,0,11.19-.45-.44c2.18,0,4.36,0,6.55,0l6.57.11Z" style="fill:#ebebeb"></path><rect x="660.94" y="66.53" width="26.48" height="11.19" style="fill:#ebebeb"></rect><path d="M89.06,63.62l-13.13.28L69.27,64c-2.22,0-4.46,0-6.69,0h-.45v-.45l-.05-11.18v-.51h.5L75.82,52c4.41,0,8.82.11,13.24.16h.27v.27c0,1.89-.08,3.78-.13,5.65Zm0,0L88.92,58c0-1.86-.12-3.7-.13-5.53l.27.27c-4.42,0-8.83.16-13.24.16l-13.24.06.5-.49L63,63.62l-.44-.44c2.18,0,4.36,0,6.54,0l6.58.12Z" style="fill:#ebebeb"></path><path d="M77.35,399.13l13.35-.28,6.58-.11c2.19-.05,4.37,0,6.55-.06l-.45.45,0-11.19.5.5-13.24-.07c-4.41,0-8.83-.11-13.24-.16l.27-.27c0,1.83-.08,3.67-.13,5.53Zm0,0-.14-5.54c0-1.87-.11-3.75-.13-5.65v-.27h.28c4.41-.05,8.83-.15,13.24-.16l13.24-.06h.5v.5l0,11.19v.45h-.44c-2.23,0-4.47,0-6.69-.05l-6.67-.11Z" style="fill:#ebebeb"></path><rect x="62.58" y="402.05" width="26.48" height="11.19" transform="translate(151.64 815.28) rotate(180)" style="fill:#ebebeb"></rect><path d="M660.94,399.14l13.36-.28,6.58-.11c2.18-.05,4.36,0,6.54-.06l-.44.45L686.92,388l.5.5-13.24-.06c-4.41,0-8.82-.12-13.24-.17l.27-.27c0,1.83-.08,3.67-.13,5.54Zm0,0-.14-5.54c0-1.86-.11-3.75-.13-5.65v-.27h.27c4.42-.05,8.83-.16,13.24-.17l13.24-.06h.5v.5l0,11.19v.45h-.45c-2.23,0-4.47,0-6.69-.05l-6.66-.11Z" style="fill:#ebebeb"></path><path d="M449.81,336.32l13.13-.28,6.66-.11c2.22-.05,4.46,0,6.69-.06h.45v.45l.05,11.19v.5h-.51L463.05,348c-4.41,0-8.82-.12-13.24-.17h-.27v-.27c0-1.9.09-3.79.13-5.65Zm0,0L450,342c0,1.87.11,3.71.13,5.54l-.28-.27c4.42-.05,8.83-.16,13.24-.17l13.24-.06-.5.5.06-11.19.44.45c-2.18,0-4.35,0-6.54-.06l-6.58-.11Z" style="fill:#ebebeb"></path><rect x="464.58" y="322.21" width="26.48" height="11.19" transform="translate(955.65 655.61) rotate(180)" style="fill:#ebebeb"></rect><rect x="168.17" y="66.55" width="279.1" height="136.55" style="fill:#fff"></rect><polygon points="447.27 149.72 447.27 205.36 331.87 205.36 331.87 111.55 351.62 111.55 351.62 138.46 356.72 138.46 356.72 123.23 381.84 123.23 381.84 147.35 385.18 147.35 385.18 90.75 407.01 90.75 407.01 106.28 418.22 106.28 418.22 125.61 421.6 125.61 421.6 113.45 441.46 113.45 441.46 149.72 447.27 149.72" style="fill:#ebebeb"></polygon><rect x="334.29" y="114.93" width="3.34" height="5.14" style="fill:#fff"></rect><rect x="340.08" y="114.93" width="3.34" height="5.14" style="fill:#fff"></rect><rect x="345.88" y="114.93" width="3.34" height="5.14" style="fill:#fff"></rect><rect x="334.29" y="122.67" width="3.34" height="5.14" style="fill:#fff"></rect><rect x="340.08" y="122.67" width="3.34" height="5.14" style="fill:#fff"></rect><rect x="345.88" y="122.67" width="3.34" height="5.14" style="fill:#fff"></rect><rect x="334.29" y="130.41" width="3.34" height="5.14" style="fill:#fff"></rect><rect x="340.08" y="130.41" width="3.34" height="5.14" style="fill:#fff"></rect><rect x="345.88" y="130.41" width="3.34" height="5.14" style="fill:#fff"></rect><rect x="334.29" y="138.15" width="3.34" height="5.14" style="fill:#fff"></rect><rect x="340.08" y="138.15" width="3.34" height="5.14" style="fill:#fff"></rect><rect x="345.88" y="138.15" width="3.34" height="5.14" style="fill:#fff"></rect><rect x="359.57" y="126.52" width="19.25" height="3.22" style="fill:#fff"></rect><rect x="359.57" y="132.76" width="19.25" height="3.22" style="fill:#fff"></rect><rect x="359.57" y="139" width="19.25" height="3.22" style="fill:#fff"></rect><rect x="359.57" y="145.25" width="19.25" height="3.22" style="fill:#fff"></rect><rect x="359.57" y="151.49" width="19.25" height="3.22" style="fill:#fff"></rect><rect x="359.57" y="157.73" width="19.25" height="3.22" style="fill:#fff"></rect><rect x="359.57" y="163.97" width="19.25" height="3.22" style="fill:#fff"></rect><rect x="359.57" y="170.21" width="19.25" height="3.22" style="fill:#fff"></rect><rect x="427.41" y="116.36" width="5.94" height="3.11" style="fill:#fff"></rect><rect x="427.41" y="122.39" width="5.94" height="3.11" style="fill:#fff"></rect><rect x="427.41" y="128.42" width="5.94" height="3.11" style="fill:#fff"></rect><rect x="427.41" y="134.45" width="5.94" height="3.11" style="fill:#fff"></rect><rect x="427.41" y="140.47" width="5.94" height="3.11" style="fill:#fff"></rect><rect x="427.41" y="146.5" width="5.94" height="3.11" style="fill:#fff"></rect><rect x="427.41" y="152.53" width="5.94" height="3.11" style="fill:#fff"></rect><rect x="427.41" y="158.56" width="5.94" height="3.11" style="fill:#fff"></rect><rect x="435.5" y="116.36" width="5.94" height="3.11" style="fill:#fff"></rect><rect x="435.5" y="122.39" width="5.94" height="3.11" style="fill:#fff"></rect><rect x="435.5" y="128.42" width="5.94" height="3.11" style="fill:#fff"></rect><rect x="435.5" y="134.45" width="5.94" height="3.11" style="fill:#fff"></rect><rect x="435.5" y="140.47" width="5.94" height="3.11" style="fill:#fff"></rect><rect x="435.5" y="146.5" width="5.94" height="3.11" style="fill:#fff"></rect><rect x="435.5" y="152.53" width="5.94" height="3.11" style="fill:#fff"></rect><rect x="435.5" y="158.56" width="5.94" height="3.11" style="fill:#fff"></rect><rect x="388.48" y="94" width="6.19" height="4.9" style="fill:#fff"></rect><rect x="397.72" y="94" width="6.19" height="4.9" style="fill:#fff"></rect><rect x="388.48" y="101.2" width="6.19" height="4.9" style="fill:#fff"></rect><rect x="397.72" y="101.2" width="6.19" height="4.9" style="fill:#fff"></rect><rect x="388.48" y="108.4" width="6.19" height="4.9" style="fill:#fff"></rect><rect x="397.72" y="108.4" width="6.19" height="4.9" style="fill:#fff"></rect><rect x="388.48" y="115.59" width="6.19" height="4.9" style="fill:#fff"></rect><rect x="397.72" y="115.59" width="6.19" height="4.9" style="fill:#fff"></rect><rect x="388.48" y="122.79" width="6.19" height="4.9" style="fill:#fff"></rect><rect x="397.72" y="122.79" width="6.19" height="4.9" style="fill:#fff"></rect><rect x="388.48" y="129.98" width="6.19" height="4.9" style="fill:#fff"></rect><rect x="397.72" y="129.98" width="6.19" height="4.9" style="fill:#fff"></rect><rect x="388.48" y="137.18" width="6.19" height="4.9" style="fill:#fff"></rect><rect x="397.72" y="137.18" width="6.19" height="4.9" style="fill:#fff"></rect><rect x="388.48" y="144.38" width="6.19" height="4.9" style="fill:#fff"></rect><rect x="397.72" y="144.38" width="6.19" height="4.9" style="fill:#fff"></rect><rect x="409.16" y="108.4" width="6.19" height="4.9" style="fill:#fff"></rect><rect x="409.16" y="115.59" width="6.19" height="4.9" style="fill:#fff"></rect><rect x="409.16" y="122.79" width="6.19" height="4.9" style="fill:#fff"></rect><rect x="409.16" y="129.98" width="6.19" height="4.9" style="fill:#fff"></rect><rect x="409.16" y="137.18" width="6.19" height="4.9" style="fill:#fff"></rect><rect x="409.16" y="144.38" width="6.19" height="4.9" style="fill:#fff"></rect><rect x="388.48" y="151.49" width="6.19" height="4.9" style="fill:#fff"></rect><rect x="397.72" y="151.49" width="6.19" height="4.9" style="fill:#fff"></rect><rect x="409.16" y="151.49" width="6.19" height="4.9" style="fill:#fff"></rect><rect x="388.48" y="158.6" width="6.19" height="4.9" style="fill:#fff"></rect><rect x="397.72" y="158.6" width="6.19" height="4.9" style="fill:#fff"></rect><rect x="409.16" y="158.6" width="6.19" height="4.9" style="fill:#fff"></rect><rect x="388.48" y="165.71" width="6.19" height="4.9" style="fill:#fff"></rect><rect x="397.72" y="165.71" width="6.19" height="4.9" style="fill:#fff"></rect><rect x="409.16" y="165.71" width="6.19" height="4.9" style="fill:#fff"></rect><rect x="388.48" y="172.82" width="6.19" height="4.9" style="fill:#fff"></rect><rect x="397.72" y="172.82" width="6.19" height="4.9" style="fill:#fff"></rect><rect x="409.16" y="172.82" width="6.19" height="4.9" style="fill:#fff"></rect><rect x="388.48" y="179.93" width="6.19" height="4.9" style="fill:#fff"></rect><rect x="397.72" y="179.93" width="6.19" height="4.9" style="fill:#fff"></rect><rect x="409.16" y="179.93" width="6.19" height="4.9" style="fill:#fff"></rect><polygon points="331.86 205.37 166.86 205.37 166.86 111.55 186.62 111.55 186.62 138.45 191.71 138.45 191.71 123.23 216.84 123.23 216.84 147.34 220.16 147.34 220.16 90.75 242.01 90.75 242.01 106.28 253.21 106.28 253.21 125.61 256.6 125.61 256.6 113.45 276.45 113.45 276.45 149.72 282.26 149.72 282.26 120.24 300.42 120.24 300.42 97.84 312.77 97.84 327.05 97.91 327.05 141.66 331.86 141.66 331.86 205.37" style="fill:#ebebeb"></polygon><rect x="169.28" y="114.93" width="3.34" height="5.14" style="fill:#fff"></rect><rect x="175.08" y="114.93" width="3.34" height="5.14" style="fill:#fff"></rect><rect x="180.87" y="114.93" width="3.34" height="5.14" style="fill:#fff"></rect><rect x="169.28" y="122.67" width="3.34" height="5.14" style="fill:#fff"></rect><rect x="175.08" y="122.67" width="3.34" height="5.14" style="fill:#fff"></rect><rect x="180.87" y="122.67" width="3.34" height="5.14" style="fill:#fff"></rect><rect x="169.28" y="130.41" width="3.34" height="5.14" style="fill:#fff"></rect><rect x="175.08" y="130.41" width="3.34" height="5.14" style="fill:#fff"></rect><rect x="180.87" y="130.41" width="3.34" height="5.14" style="fill:#fff"></rect><rect x="169.28" y="138.15" width="3.34" height="5.14" style="fill:#fff"></rect><rect x="175.08" y="138.15" width="3.34" height="5.14" style="fill:#fff"></rect><rect x="180.87" y="138.15" width="3.34" height="5.14" style="fill:#fff"></rect><rect x="285.05" y="123.91" width="3.34" height="4.29" style="fill:#fff"></rect><rect x="290.85" y="123.91" width="3.34" height="4.29" style="fill:#fff"></rect><rect x="296.64" y="123.91" width="3.34" height="4.29" style="fill:#fff"></rect><rect x="285.05" y="130.37" width="3.34" height="4.29" style="fill:#fff"></rect><rect x="290.85" y="130.37" width="3.34" height="4.29" style="fill:#fff"></rect><rect x="296.64" y="130.37" width="3.34" height="4.29" style="fill:#fff"></rect><rect x="285.05" y="136.82" width="3.34" height="4.29" style="fill:#fff"></rect><rect x="290.85" y="136.82" width="3.34" height="4.29" style="fill:#fff"></rect><rect x="296.64" y="136.82" width="3.34" height="4.29" style="fill:#fff"></rect><rect x="285.05" y="143.28" width="3.34" height="4.29" style="fill:#fff"></rect><rect x="290.85" y="143.28" width="3.34" height="4.29" style="fill:#fff"></rect><rect x="296.64" y="143.28" width="3.34" height="4.29" style="fill:#fff"></rect><rect x="285.05" y="149.9" width="3.34" height="4.29" style="fill:#fff"></rect><rect x="290.85" y="149.9" width="3.34" height="4.29" style="fill:#fff"></rect><rect x="296.64" y="149.9" width="3.34" height="4.29" style="fill:#fff"></rect><rect x="285.05" y="156.51" width="3.34" height="4.29" style="fill:#fff"></rect><rect x="290.85" y="156.51" width="3.34" height="4.29" style="fill:#fff"></rect><rect x="296.64" y="156.51" width="3.34" height="4.29" style="fill:#fff"></rect><rect x="285.05" y="163.13" width="3.34" height="4.29" style="fill:#fff"></rect><rect x="290.85" y="163.13" width="3.34" height="4.29" style="fill:#fff"></rect><rect x="296.64" y="163.13" width="3.34" height="4.29" style="fill:#fff"></rect><rect x="285.05" y="169.74" width="3.34" height="4.29" style="fill:#fff"></rect><rect x="290.85" y="169.74" width="3.34" height="4.29" style="fill:#fff"></rect><rect x="296.64" y="169.74" width="3.34" height="4.29" style="fill:#fff"></rect><rect x="194.56" y="126.52" width="19.25" height="3.22" style="fill:#fff"></rect><rect x="194.56" y="132.76" width="19.25" height="3.22" style="fill:#fff"></rect><rect x="194.56" y="139" width="19.25" height="3.22" style="fill:#fff"></rect><rect x="194.56" y="145.25" width="19.25" height="3.22" style="fill:#fff"></rect><rect x="194.56" y="151.49" width="19.25" height="3.22" style="fill:#fff"></rect><rect x="194.56" y="157.73" width="19.25" height="3.22" style="fill:#fff"></rect><rect x="194.56" y="163.97" width="19.25" height="3.22" style="fill:#fff"></rect><rect x="194.56" y="170.21" width="19.25" height="3.22" style="fill:#fff"></rect><rect x="262.4" y="116.36" width="5.94" height="3.11" style="fill:#fff"></rect><rect x="262.4" y="122.39" width="5.94" height="3.11" style="fill:#fff"></rect><rect x="262.4" y="128.42" width="5.94" height="3.11" style="fill:#fff"></rect><rect x="262.4" y="134.45" width="5.94" height="3.11" style="fill:#fff"></rect><rect x="262.4" y="140.47" width="5.94" height="3.11" style="fill:#fff"></rect><rect x="262.4" y="146.5" width="5.94" height="3.11" style="fill:#fff"></rect><rect x="262.4" y="152.53" width="5.94" height="3.11" style="fill:#fff"></rect><rect x="262.4" y="158.56" width="5.94" height="3.11" style="fill:#fff"></rect><rect x="270.49" y="116.36" width="5.94" height="3.11" style="fill:#fff"></rect><rect x="270.49" y="122.39" width="5.94" height="3.11" style="fill:#fff"></rect><rect x="270.49" y="128.42" width="5.94" height="3.11" style="fill:#fff"></rect><rect x="270.49" y="134.45" width="5.94" height="3.11" style="fill:#fff"></rect><rect x="270.49" y="140.47" width="5.94" height="3.11" style="fill:#fff"></rect><rect x="270.49" y="146.5" width="5.94" height="3.11" style="fill:#fff"></rect><rect x="270.49" y="152.53" width="5.94" height="3.11" style="fill:#fff"></rect><rect x="270.49" y="158.56" width="5.94" height="3.11" style="fill:#fff"></rect><rect x="223.48" y="94" width="6.19" height="4.9" style="fill:#fff"></rect><rect x="232.71" y="94" width="6.19" height="4.9" style="fill:#fff"></rect><rect x="223.48" y="101.2" width="6.19" height="4.9" style="fill:#fff"></rect><rect x="232.71" y="101.2" width="6.19" height="4.9" style="fill:#fff"></rect><rect x="223.48" y="108.4" width="6.19" height="4.9" style="fill:#fff"></rect><rect x="232.71" y="108.4" width="6.19" height="4.9" style="fill:#fff"></rect><rect x="223.48" y="115.59" width="6.19" height="4.9" style="fill:#fff"></rect><rect x="232.71" y="115.59" width="6.19" height="4.9" style="fill:#fff"></rect><rect x="223.48" y="122.79" width="6.19" height="4.9" style="fill:#fff"></rect><rect x="232.71" y="122.79" width="6.19" height="4.9" style="fill:#fff"></rect><rect x="223.48" y="129.98" width="6.19" height="4.9" style="fill:#fff"></rect><rect x="232.71" y="129.98" width="6.19" height="4.9" style="fill:#fff"></rect><rect x="223.48" y="137.18" width="6.19" height="4.9" style="fill:#fff"></rect><rect x="232.71" y="137.18" width="6.19" height="4.9" style="fill:#fff"></rect><rect x="223.48" y="144.38" width="6.19" height="4.9" style="fill:#fff"></rect><rect x="232.71" y="144.38" width="6.19" height="4.9" style="fill:#fff"></rect><rect x="244.15" y="108.4" width="6.19" height="4.9" style="fill:#fff"></rect><rect x="244.15" y="115.59" width="6.19" height="4.9" style="fill:#fff"></rect><rect x="244.15" y="122.79" width="6.19" height="4.9" style="fill:#fff"></rect><rect x="244.15" y="129.98" width="6.19" height="4.9" style="fill:#fff"></rect><rect x="244.15" y="137.18" width="6.19" height="4.9" style="fill:#fff"></rect><rect x="244.15" y="144.38" width="6.19" height="4.9" style="fill:#fff"></rect><rect x="223.48" y="151.49" width="6.19" height="4.9" style="fill:#fff"></rect><rect x="232.71" y="151.49" width="6.19" height="4.9" style="fill:#fff"></rect><rect x="244.15" y="151.49" width="6.19" height="4.9" style="fill:#fff"></rect><rect x="223.48" y="158.6" width="6.19" height="4.9" style="fill:#fff"></rect><rect x="232.71" y="158.6" width="6.19" height="4.9" style="fill:#fff"></rect><rect x="244.15" y="158.6" width="6.19" height="4.9" style="fill:#fff"></rect><rect x="223.48" y="165.71" width="6.19" height="4.9" style="fill:#fff"></rect><rect x="232.71" y="165.71" width="6.19" height="4.9" style="fill:#fff"></rect><rect x="244.15" y="165.71" width="6.19" height="4.9" style="fill:#fff"></rect><rect x="223.48" y="172.82" width="6.19" height="4.9" style="fill:#fff"></rect><rect x="232.71" y="172.82" width="6.19" height="4.9" style="fill:#fff"></rect><rect x="244.15" y="172.82" width="6.19" height="4.9" style="fill:#fff"></rect><rect x="223.48" y="179.93" width="6.19" height="4.9" style="fill:#fff"></rect><rect x="232.71" y="179.93" width="6.19" height="4.9" style="fill:#fff"></rect><rect x="244.15" y="179.93" width="6.19" height="4.9" style="fill:#fff"></rect><rect x="302.94" y="100.99" width="3.34" height="4.29" style="fill:#fff"></rect><rect x="308.74" y="100.99" width="3.34" height="4.29" style="fill:#fff"></rect><rect x="302.94" y="107.45" width="3.34" height="4.29" style="fill:#fff"></rect><rect x="308.74" y="107.45" width="3.34" height="4.29" style="fill:#fff"></rect><rect x="302.94" y="113.91" width="3.34" height="4.29" style="fill:#fff"></rect><rect x="308.74" y="113.91" width="3.34" height="4.29" style="fill:#fff"></rect><rect x="302.94" y="120.36" width="3.34" height="4.29" style="fill:#fff"></rect><rect x="308.74" y="120.36" width="3.34" height="4.29" style="fill:#fff"></rect><rect x="302.94" y="126.98" width="3.34" height="4.29" style="fill:#fff"></rect><rect x="308.74" y="126.98" width="3.34" height="4.29" style="fill:#fff"></rect><rect x="302.94" y="133.6" width="3.34" height="4.29" style="fill:#fff"></rect><rect x="308.74" y="133.6" width="3.34" height="4.29" style="fill:#fff"></rect><rect x="302.94" y="140.21" width="3.34" height="4.29" style="fill:#fff"></rect><rect x="308.74" y="140.21" width="3.34" height="4.29" style="fill:#fff"></rect><rect x="302.94" y="146.83" width="3.34" height="4.29" style="fill:#fff"></rect><rect x="308.74" y="146.83" width="3.34" height="4.29" style="fill:#fff"></rect><rect x="302.94" y="153.51" width="3.34" height="4.29" style="fill:#fff"></rect><rect x="308.74" y="153.51" width="3.34" height="4.29" style="fill:#fff"></rect><rect x="302.94" y="160.2" width="3.34" height="4.29" style="fill:#fff"></rect><rect x="308.74" y="160.2" width="3.34" height="4.29" style="fill:#fff"></rect><rect x="302.94" y="166.89" width="3.34" height="4.29" style="fill:#fff"></rect><rect x="308.74" y="166.89" width="3.34" height="4.29" style="fill:#fff"></rect><rect x="302.94" y="173.57" width="3.34" height="4.29" style="fill:#fff"></rect><rect x="308.74" y="173.57" width="3.34" height="4.29" style="fill:#fff"></rect><rect x="315.34" y="100.99" width="3.34" height="4.29" style="fill:#fff"></rect><rect x="321.13" y="100.99" width="3.34" height="4.29" style="fill:#fff"></rect><rect x="315.34" y="107.45" width="3.34" height="4.29" style="fill:#fff"></rect><rect x="321.13" y="107.45" width="3.34" height="4.29" style="fill:#fff"></rect><rect x="315.34" y="113.91" width="3.34" height="4.29" style="fill:#fff"></rect><rect x="321.13" y="113.91" width="3.34" height="4.29" style="fill:#fff"></rect><rect x="315.34" y="120.36" width="3.34" height="4.29" style="fill:#fff"></rect><rect x="321.13" y="120.36" width="3.34" height="4.29" style="fill:#fff"></rect><rect x="315.34" y="126.98" width="3.34" height="4.29" style="fill:#fff"></rect><rect x="321.13" y="126.98" width="3.34" height="4.29" style="fill:#fff"></rect><rect x="315.34" y="133.6" width="3.34" height="4.29" style="fill:#fff"></rect><rect x="321.13" y="133.6" width="3.34" height="4.29" style="fill:#fff"></rect><rect x="315.34" y="140.21" width="3.34" height="4.29" style="fill:#fff"></rect><rect x="321.13" y="140.21" width="3.34" height="4.29" style="fill:#fff"></rect><rect x="315.34" y="146.83" width="3.34" height="4.29" style="fill:#fff"></rect><rect x="321.13" y="146.83" width="3.34" height="4.29" style="fill:#fff"></rect><rect x="315.34" y="153.51" width="3.34" height="4.29" style="fill:#fff"></rect><rect x="321.13" y="153.51" width="3.34" height="4.29" style="fill:#fff"></rect><rect x="315.34" y="160.2" width="3.34" height="4.29" style="fill:#fff"></rect><rect x="321.13" y="160.2" width="3.34" height="4.29" style="fill:#fff"></rect><rect x="315.34" y="166.89" width="3.34" height="4.29" style="fill:#fff"></rect><rect x="321.13" y="166.89" width="3.34" height="4.29" style="fill:#fff"></rect><rect x="315.34" y="173.57" width="3.34" height="4.29" style="fill:#fff"></rect><rect x="321.13" y="173.57" width="3.34" height="4.29" style="fill:#fff"></rect><path d="M164.13,62V207.64H451.31V62ZM447.27,203.1H168.17V66.55h279.1Z" style="fill:#dbdbdb"></path><rect x="305.7" y="66.55" width="4.05" height="136.55" style="fill:#dbdbdb"></rect></g><g id="freepik--Plant--inject-2"><path d="M344.8,277.73s-24.86-3.48-19.05-33.5C325.75,244.23,353.53,250.47,344.8,277.73Z" style="fill:#263238"></path><path d="M344.8,277.73s-24.86-3.48-19.05-33.5C325.75,244.23,353.53,250.47,344.8,277.73Z" style="opacity:0.1"></path><path d="M343.55,271.46a47.23,47.23,0,0,0-1.7-4.47l-.06-.57c0-.41-.07-.83-.1-1.24-.07-.9-.13-1.79-.18-2.69-.11-1.79-.22-3.59-.25-5.38a.07.07,0,0,0-.15,0c0,1.8-.05,3.59,0,5.39,0,.9.09,1.79.15,2.69,0,.2,0,.4,0,.6a53.83,53.83,0,0,0-5-8.53c-.86-1.19-1.76-2.34-2.72-3.45s-2-2.21-3-3.33c-.07-.07-.17,0-.11.11a44.64,44.64,0,0,1,4.8,6.37c.75,1.14,1.46,2.32,2.14,3.51l-.23-.09-.88-.36-2-.77c-1.34-.49-2.67-1-4-1.49-.08,0-.14.11-.06.14,1.32.53,2.63,1.09,3.94,1.65l1.92.83,1,.4a2.88,2.88,0,0,0,.66.23c.51.9,1,1.81,1.46,2.73a66.27,66.27,0,0,1,3,7.16l.18.52a14.71,14.71,0,0,0-2-1c-.86-.39-1.72-.77-2.57-1.17-1.75-.8-3.48-1.61-5.15-2.56a.08.08,0,0,0-.07.14c1.7.93,3.38,1.92,5.09,2.85.85.47,1.71.92,2.59,1.34a8,8,0,0,0,2.34.94,29.85,29.85,0,0,1,1.63,7c.27,3.39.24,6.82.32,10.22,0,.06.09.05.09,0,.25-3.09.39-6.21.4-9.3A26.89,26.89,0,0,0,343.55,271.46Z" style="fill:#263238"></path><path d="M339.72,253.81a29.31,29.31,0,0,0-.25,5.29s.07,0,.08,0c.1-1.75.11-3.5.32-5.25C339.88,253.75,339.73,253.71,339.72,253.81Z" style="fill:#263238"></path><path d="M332.61,255.31a19,19,0,0,1-3.2-1.57.07.07,0,1,0-.07.13,12.17,12.17,0,0,0,3.23,1.55C332.63,255.43,332.67,255.34,332.61,255.31Z" style="fill:#263238"></path><path d="M345.6,325.38c0-2.75-.08-5.5-.11-8.24-.05-9.13-.12-18.25-.29-27.38Q345,278.9,344.7,268a.13.13,0,0,0-.07-.09l0-5.93c0-.05-.06-.08-.12-.08s-.12,0-.12.08l0,5.95s-.06,0-.06.08c-.37,12.89-.69,25.79-.77,38.68,0,2.62,0,5.24,0,7.87q-.14,12.6-.1,25.22l0,4c0,7.69.08,15.38.08,23.08,0,.41.46.62.95.64s1.15-.2,1.15-.68c0-8.48.06-17,.06-25.44C345.62,336.07,345.64,330.72,345.6,325.38Z" style="fill:#263238"></path><path d="M335.21,317s-12-8.86-23.31-2.87-13.13,29.06-13.13,29.06,16.67,2.39,27.17-7.6C336.05,326,335.21,317,335.21,317Z" style="fill:#263238"></path><path d="M338.47,317.58a14.27,14.27,0,0,0-6.92-.91,12.18,12.18,0,0,0-1.47-.14l-1.69-.13-3.48-.24c-2.36-.18-4.73-.32-7.08-.56-.09,0-.1.14,0,.15,2.33.3,4.65.63,7,.86,1.2.13,2.4.25,3.61.34l.87.08-1.06.26a29.23,29.23,0,0,0-5.42,2.21c-.94.17-1.88.43-2.8.65-1.48.35-2.95.73-4.42,1.11-2.91.76-5.78,1.62-8.66,2.46a.07.07,0,1,0,0,.14c2.88-.7,5.77-1.35,8.66-2l4.21-1,1.09-.26a35.21,35.21,0,0,0-8.5,7.39,46,46,0,0,0-5.9,9.32c0,.08.08.17.12.08a45.4,45.4,0,0,1,7.15-9.38l-.15.48c-.23.7-.45,1.4-.67,2.11-.44,1.41-.89,2.81-1.31,4.23,0,.09.12.12.15,0,.5-1.37,1-2.74,1.46-4.12.24-.67.48-1.34.71-2,.13-.34.24-.69.36-1.05l.12-.32a41.47,41.47,0,0,1,4.24-3.61,32,32,0,0,1,6.35-3.64c-.05.21-.08.41-.12.61l-.36,1.64c-.23,1.13-.45,2.27-.67,3.4-.45,2.31-.73,4.66-1.16,7,0,.1.12.14.14,0,.54-2.33,1.23-4.62,1.75-7,.26-1.17.52-2.33.76-3.5.12-.55.23-1.1.34-1.64.06-.31.13-.61.16-.92.22-.09.43-.19.65-.27,3.14-1.16,6.61-2,9.95-1.36a9.76,9.76,0,0,1,7.2,5.77c.11.26.52.09.46-.17A9.23,9.23,0,0,0,338.47,317.58Z" style="fill:#263238"></path><path d="M320.16,327.43c-.33,1.52-.67,3-1,4.55a33.43,33.43,0,0,0-.84,4.42c0,.06.08.06.1,0a33.71,33.71,0,0,0,1-4.45c.3-1.5.59-3,.88-4.49A.08.08,0,0,0,320.16,327.43Z" style="fill:#263238"></path><path d="M308.6,331.28c-1.52.78-3,1.66-4.59,2.29a.07.07,0,1,0,.06.13,45.72,45.72,0,0,0,4.56-2.36S308.64,331.27,308.6,331.28Z" style="fill:#263238"></path><path d="M337.9,300.76s-14.61.93-21.41-8.71-5.28-23.4-5.28-23.4,15.36,1.87,21.45,8.79S337.9,300.76,337.9,300.76Z" style="fill:#263238"></path><path d="M344.76,315.18c-.5-1.57-1.13-3.11-1.72-4.64s-1.18-2.94-1.82-4.38a88.09,88.09,0,0,0-4.38-8.61c-1-1.78-2.14-3.5-3.28-5.2,0-.26-.07-.52-.11-.78-.07-.46-.13-.91-.2-1.36-.15-.93-.31-1.85-.47-2.77-.33-2-.75-4-1.07-6.05,0-.09-.17-.09-.15,0,.29,2,.49,4,.77,6,.14,1,.27,2,.42,2.94.05.35.11.7.16,1.06a102.19,102.19,0,0,0-7.23-9.38c-.35-.41-.71-.8-1.06-1.2,0-.11-.09-.22-.14-.33l-.32-.84-.63-1.74c-.41-1.14-.78-2.3-1.09-3.48,0-.09-.17-.05-.14.05.29,1.2.6,2.4.95,3.58.17.57.36,1.14.56,1.7,0,.09.07.19.11.28-1.87-2-3.82-4-5.79-5.94-.07-.07-.17,0-.1.11a104.21,104.21,0,0,1,10.35,12.69,8.16,8.16,0,0,0-1.08-.28c-1.12-.21-2.26-.37-3.4-.52-2.38-.3-4.75-.6-7.12-1-.1,0-.14.13,0,.15,2.27.45,4.51,1,6.76,1.47,1.06.25,2.13.46,3.19.67a18.85,18.85,0,0,1,2.57.73c.24.34.48.67.71,1,1.08,1.56,2.11,3.15,3.11,4.76l-1.49-.29c-1.13-.22-2.26-.43-3.39-.61-2.23-.37-4.46-.76-6.67-1.26a.08.08,0,0,0,0,.15c2.23.52,4.45,1.14,6.66,1.73,1.07.28,2.15.54,3.23.78l1.63.35a4.2,4.2,0,0,0,.66.12c2.13,3.46,4.14,7,6,10.62.82,1.59,1.6,3.19,2.36,4.81s1.45,3.36,2.17,5C344.35,315.69,344.88,315.55,344.76,315.18Z" style="fill:#263238"></path><path d="M329.8,281.59c-.28-1.4-.57-2.79-.88-4.17,0-.1-.16-.06-.15,0,.28,1.37.55,2.74.79,4.12s.45,2.76.83,4.09a0,0,0,0,0,.05,0A29.69,29.69,0,0,0,329.8,281.59Z" style="fill:#263238"></path><path d="M321.28,281.18c-.68-.34-1.4-.61-2.11-.88l-1.1-.44-.57-.22a2.84,2.84,0,0,1-.62-.27c-.11-.09-.18.11-.07.12a2.89,2.89,0,0,1,.63.26l.55.25,1.07.47a18.33,18.33,0,0,0,2.16.86C321.3,281.36,321.36,281.22,321.28,281.18Z" style="fill:#263238"></path><path d="M352.86,289.27s8.85-16.53,22.31-19.09,21.69,11.29,21.69,11.29S387.05,294,374.7,296.19,352.86,289.27,352.86,289.27Z" style="fill:#263238"></path><path d="M384.19,277.59a36.64,36.64,0,0,0-10.56.12l.6-.32c1-.5,2-1,3-1.54a69.57,69.57,0,0,1,6.32-3.08.08.08,0,1,0-.07-.14c-2.1,1-4.28,1.8-6.39,2.77-1.06.49-2.1,1-3.13,1.54-.66.35-1.4.69-2.05,1.11a36.7,36.7,0,0,0-8.55,2.84l1.68-1.83c1.25-1.38,2.49-2.82,3.87-4.07.07-.07,0-.17-.11-.11-1.41,1.28-2.9,2.47-4.26,3.8-.67.64-1.3,1.31-1.92,2-.31.34-.62.7-.91,1.06a35.5,35.5,0,0,0-18,24.37c0,.09.11.14.14.05a40.75,40.75,0,0,1,9.9-16.75,38.9,38.9,0,0,1,18-10.43,39.78,39.78,0,0,1,12.44-1.13A.13.13,0,0,0,384.19,277.59Z" style="fill:#263238"></path><path d="M396.86,281.47s-9.81,12.54-22.17,14.72c-9.42,1.68-17.17-3.24-20.31-5.66l-.68-1.11s6.37-5.37,18.42-8.47S396.86,281.47,396.86,281.47Z" style="opacity:0.1"></path><path d="M376.37,271.7a32.81,32.81,0,0,0-3,2,19.43,19.43,0,0,0-2.59,2.37.08.08,0,1,0,.11.11c.89-.77,1.79-1.55,2.72-2.28a28.17,28.17,0,0,1,2.83-2C376.53,271.78,376.45,271.65,376.37,271.7Z" style="fill:#263238"></path><path d="M383.76,274.49c-.5.21-1,.39-1.51.6l-1.5.62c-.11,0-.06.22.05.17l1.51-.6c.5-.21,1-.44,1.49-.64C383.89,274.6,383.85,274.46,383.76,274.49Z" style="fill:#263238"></path><path d="M351.1,310.06s2.36,16.39,14.69,22.12,27.35,0,27.35,0S387.23,296.72,351.1,310.06Z" style="fill:#263238"></path><path d="M384.65,321.52c-1.14-.13-2.27-.32-3.4-.53l-1.65-.31-.87-.17c-.33-.31-.66-.63-1-.93a49.82,49.82,0,0,0-7.53-5.46,42.8,42.8,0,0,0-4.52-2.32h.23L370,312c2.7.13,5.41.19,8.11.36.1,0,.09-.14,0-.15-2.72-.18-5.42-.48-8.13-.71l-3.94-.35-2-.18-.52-.06c-.7-.26-1.41-.51-2.13-.73a19.22,19.22,0,0,0-10.44-.57c-3.1.79-6.19,2.82-7,6.09,0,.11.14.19.19.08,1.16-2.73,4.19-4.11,6.93-4.68a16.59,16.59,0,0,1,5.58-.11,13.43,13.43,0,0,0,.62,2.48c.34,1.16.68,2.31,1,3.46.7,2.3,1.47,4.58,2.15,6.89,0,.09.17.05.14,0-.57-2.3-1.05-4.63-1.61-6.93-.27-1.13-.55-2.26-.83-3.39a19.17,19.17,0,0,0-.62-2.33,30.82,30.82,0,0,1,3.19.75,47.42,47.42,0,0,1,5.59,2.05c.18,1.17.44,2.33.71,3.48.34,1.45.71,2.88,1.17,4.29a.07.07,0,0,0,.14,0l-.06-.27h0c-.28-1.34-.57-2.68-.85-4-.23-1.08-.44-2.16-.68-3.24a49.94,49.94,0,0,1,4.5,2.28c0,.33.11.67.16,1,.09.56.19,1.12.29,1.68.23,1.26.48,2.52.79,3.77a58.41,58.41,0,0,0,2.12,7.13.08.08,0,0,0,0,.1l.07.08c.05.06.14,0,.12-.08-.57-2.43-1.22-4.83-1.75-7.27-.27-1.22-.54-2.44-.78-3.66-.12-.61-.24-1.22-.35-1.83l-.09-.55a49.42,49.42,0,0,1,4.8,3.2,51.35,51.35,0,0,1,7.35,6.71c.09.09.26,0,.18-.15a43.81,43.81,0,0,0-2.94-3.59c-.62-.66-1.26-1.3-1.92-1.93l.21,0,1.73.26c1.14.15,2.29.26,3.43.39C384.71,321.68,384.74,321.53,384.65,321.52Z" style="fill:#263238"></path><path d="M376,327.08h0a3.07,3.07,0,0,0-.07-.42c0-.19-.12-.36-.14-.54h0q-.37-1.64-.66-3.3a.07.07,0,0,0-.14,0,13.47,13.47,0,0,0,.94,4.28,0,0,0,0,0,.09,0Z" style="fill:#263238"></path><path d="M365.67,326.82a.07.07,0,0,0-.07-.07c-.35-1.45-.68-2.91-1-4.37-.16-.77-.32-1.53-.47-2.3-.08-.42-.15-.83-.23-1.25a3.43,3.43,0,0,0-.26-1.06.08.08,0,0,0-.14,0,7.22,7.22,0,0,0,.31,2.2c.15.8.3,1.6.48,2.39.36,1.62.76,3.23,1.22,4.82a.08.08,0,0,0,.16,0C365.69,327.06,365.68,326.94,365.67,326.82Z" style="fill:#263238"></path><path d="M383.52,316.8c-2.25-.31-4.5-.63-6.75-.91-.1,0-.14.14,0,.15,2.25.33,4.5.61,6.76.91C383.58,317,383.62,316.82,383.52,316.8Z" style="fill:#263238"></path><path d="M344.78,271.62s-7.54-33.09,28-46.48C372.79,225.14,382.64,268.69,344.78,271.62Z" style="fill:#263238"></path><path d="M352.46,252.85l.38-.23,2-1.12,4.12-2.31c2.72-1.52,5.39-3.1,8.13-4.58.08-.05,0-.18-.08-.13-2.74,1.49-5.52,2.88-8.28,4.34L354.67,251l-1.67.88c1.19-2.25,2.45-4.45,3.85-6.58,1.85-2.83,3.89-5.53,6-8.17a.12.12,0,0,0-.18-.17A56.59,56.59,0,0,0,354.46,247c0-.12,0-.24,0-.35,0-.82.06-1.64.07-2.47,0-1.61-.06-3.23,0-4.84,0-.1-.14-.1-.15,0-.06,1.59-.26,3.17-.35,4.76,0,.8-.08,1.59-.1,2.38,0,.43-.05.92,0,1.39-.73,1.17-1.43,2.35-2.1,3.55a61.63,61.63,0,0,0-3.17,6.66c0-.82-.09-1.65-.14-2.47-.1-1.81-.33-3.62-.4-5.43,0-.1-.16-.09-.15,0,0,1.82-.05,3.63,0,5.44,0,.91.05,1.81.11,2.72l.06,1a60.17,60.17,0,0,0-2.68,9.09,98.59,98.59,0,0,0-1.33,10,0,0,0,1,0,0,0,53.31,53.31,0,0,1,1.89-8.91c.44-1.56.9-3.11,1.4-4.65,1.48-.7,2.9-1.57,4.33-2.36s3-1.63,4.46-2.44c3-1.63,5.93-3.29,9-4.72.09,0,0-.17-.08-.13-3.1,1.4-6.23,2.74-9.27,4.27-1.52.76-3,1.57-4.48,2.4-1.24.7-2.51,1.39-3.69,2.19.35-1,.71-2,1.1-3.07A89,89,0,0,1,352.46,252.85Z" style="fill:#263238"></path><path d="M349.46,245.29c0-.1-.16-.1-.15,0,.13,1.89.19,3.78.39,5.66a.09.09,0,0,0,.17,0C349.8,249.05,349.6,247.17,349.46,245.29Z" style="fill:#263238"></path><path d="M366.51,251.61c-2.23.89-4.47,1.74-6.69,2.67-.06,0,0,.13,0,.1,2.25-.84,4.47-1.76,6.7-2.63C366.64,251.72,366.6,251.57,366.51,251.61Z" style="fill:#263238"></path><path d="M369.88,236.35a57.32,57.32,0,0,0-6.32,3.39c-.1.06,0,.22.1.16,2.06-1.21,4.16-2.36,6.3-3.43C370.05,236.43,370,236.31,369.88,236.35Z" style="fill:#263238"></path><rect x="318.08" y="343.17" width="51.27" height="54.04" style="fill:#455a64"></rect><rect x="314.55" y="362.29" width="2.62" height="92.57" style="fill:#263238"></rect><rect x="369.98" y="362.29" width="2.62" height="92.57" style="fill:#263238"></rect><rect x="343.66" y="362.29" width="2.62" height="92.57" style="fill:#263238"></rect><rect x="315.86" y="393.75" width="55.43" height="7.48" style="fill:#263238"></rect></g><g id="freepik--Floor--inject-2"><polygon points="51.75 454.86 132.56 454.62 213.37 454.53 375 454.36 536.63 454.53 617.44 454.62 698.25 454.86 617.44 455.11 536.63 455.19 375 455.36 213.37 455.19 132.56 455.1 51.75 454.86" style="fill:#263238"></polygon></g><g id="freepik--Door--inject-2"><rect x="530.29" y="72.6" width="152.03" height="382.02" style="fill:#fff"></rect><polygon points="696.8 56.87 696.8 454.62 682.32 454.62 682.32 72.31 530.29 72.31 530.29 454.62 515.81 454.62 515.81 56.87 696.8 56.87" style="fill:#37474f"></polygon><polygon points="563.07 467.73 683.58 454.62 683.58 72.31 562.6 55.23 563.07 467.73" style="fill:#455a64"></polygon><polygon points="556.19 54.66 563.07 55.63 563.07 467.73 556.19 466.41 556.19 54.66" style="fill:#37474f"></polygon><polygon points="619.36 410.94 582.74 413.64 582.74 81.55 619.36 85.92 619.36 410.94" style="fill:#dbdbdb"></polygon><polygon points="668.51 406.95 631.88 410.07 631.88 87.41 668.51 91.77 668.51 406.95" style="fill:#dbdbdb"></polygon><polygon points="619.36 85.92 619.36 91.26 582.73 119.24 582.73 101.76 605.75 84.3 619.36 85.92" style="fill:#ebebeb"></polygon><polygon points="582.73 311.32 619.36 276.72 619.36 293.59 582.73 328.79 582.73 311.32" style="fill:#ebebeb"></polygon><polygon points="668.51 233.78 668.51 249.85 631.89 282.06 631.89 265.4 668.51 233.78" style="fill:#ebebeb"></polygon><polygon points="668.51 371.22 668.51 387.29 647.15 408.81 631.89 410.06 631.89 407.99 668.51 371.22" style="fill:#ebebeb"></polygon><polygon points="582.73 164.97 619.36 135.42 619.36 143.86 582.73 173.72 582.73 164.97" style="fill:#ebebeb"></polygon><polygon points="668.51 99.25 668.51 107.29 631.89 134.16 631.89 125.82 668.51 99.25" style="fill:#ebebeb"></polygon><polygon points="582.73 405.6 619.36 367.75 619.36 376.19 583.43 413.58 582.73 413.63 582.73 405.6" style="fill:#ebebeb"></polygon><polygon points="668.51 320.46 668.51 328.49 631.89 363.65 631.89 355.32 668.51 320.46" style="fill:#ebebeb"></polygon><polygon points="582.73 151.62 619.36 122.52 619.36 125.15 582.73 154.33 582.73 151.62" style="fill:#ebebeb"></polygon><polygon points="665.65 91.43 631.89 115.67 631.89 113.08 662.56 91.06 665.65 91.43" style="fill:#ebebeb"></polygon><polygon points="595.15 412.76 619.36 387.52 619.36 390.15 597.87 412.56 595.15 412.76" style="fill:#ebebeb"></polygon><polygon points="668.51 339.28 668.51 341.79 631.89 377.44 631.89 374.85 668.51 339.28" style="fill:#ebebeb"></polygon><polygon points="582.73 212.74 619.36 181.54 619.36 184.18 582.73 215.47 582.73 212.74" style="fill:#ebebeb"></polygon><polygon points="668.51 143.16 668.51 145.68 631.89 173.98 631.89 171.38 668.51 143.16" style="fill:#ebebeb"></polygon><polygon points="582.73 289.47 619.36 255.62 619.36 258.25 582.73 292.19 582.73 289.47" style="fill:#ebebeb"></polygon><polygon points="668.51 213.7 668.51 216.2 631.89 247.16 631.89 244.56 668.51 213.7" style="fill:#ebebeb"></polygon><polygon points="581.46 312.25 570.51 314.32 570.56 269.41 581.51 267.97 581.46 312.25" style="fill:#c7c7c7"></polygon><polygon points="592.47 275.1 576.01 277.59 576.01 272.5 592.47 270.08 592.47 275.1" style="fill:#c7c7c7"></polygon><polygon points="589.52 283.28 589.52 270.51 592.47 270.08 592.47 282.82 589.52 283.28" style="fill:#c7c7c7"></polygon></g><g id="freepik--Chair--inject-2"><path d="M175,346.29c-4.43,2.63-8.9,5.16-13.38,7.69s-9,5-13.49,7.47-9.05,4.89-13.59,7.29l-6.83,3.58c-2.3,1.17-4.57,2.36-6.88,3.5,2.21-1.32,4.45-2.58,6.67-3.88l6.71-3.8c4.48-2.52,9-5,13.49-7.47s9-4.9,13.59-7.3S170.34,348.59,175,346.29Z" style="fill:#dbdbdb"></path><path d="M124.61,346.29c4.28,2,8.51,4.17,12.74,6.31s8.42,4.34,12.63,6.51,8.38,4.44,12.54,6.7l6.24,3.42c2.06,1.17,4.14,2.31,6.19,3.5-2.15-1-4.27-2.08-6.4-3.11l-6.35-3.2c-4.23-2.14-8.42-4.34-12.63-6.51s-8.38-4.44-12.54-6.71S128.72,348.66,124.61,346.29Z" style="fill:#dbdbdb"></path><path d="M226.07,346.29c-4.42,2.63-8.9,5.16-13.38,7.69s-9,5-13.49,7.47-9,4.89-13.59,7.29l-6.83,3.58c-2.29,1.17-4.57,2.36-6.87,3.5,2.2-1.32,4.44-2.58,6.66-3.88l6.71-3.8c4.48-2.52,9-5,13.49-7.47s9-4.9,13.6-7.3S221.47,348.59,226.07,346.29Z" style="fill:#dbdbdb"></path><path d="M175.73,346.29c4.28,2,8.52,4.17,12.75,6.31s8.42,4.34,12.63,6.51,8.37,4.44,12.54,6.7l6.23,3.42c2.06,1.17,4.14,2.31,6.19,3.5-2.14-1-4.26-2.08-6.39-3.11l-6.35-3.2c-4.23-2.14-8.43-4.34-12.64-6.51s-8.37-4.44-12.53-6.71S179.84,348.66,175.73,346.29Z" style="fill:#dbdbdb"></path><polygon points="216.72 339.22 219.43 355.46 237.78 454.56 240.74 454.56 227.4 355.46 225.43 339.22 216.72 339.22" style="fill:#dbdbdb"></polygon><polygon points="225.43 339.22 216.72 339.22 219.43 355.46 227.4 355.46 225.43 339.22" style="fill:#c7c7c7"></polygon><polygon points="159.1 454.56 162.06 454.56 180.41 355.46 183.12 339.22 174.41 339.22 172.44 355.46 159.1 454.56" style="fill:#dbdbdb"></polygon><polygon points="174.41 339.22 172.44 355.46 180.41 355.46 183.12 339.22 174.41 339.22" style="fill:#c7c7c7"></polygon><polygon points="104.06 454.56 107.02 454.56 125.37 355.46 128.08 339.22 119.38 339.22 117.4 355.46 104.06 454.56" style="fill:#dbdbdb"></polygon><polygon points="117.4 355.46 125.37 355.46 128.08 339.22 119.38 339.22 117.4 355.46" style="fill:#c7c7c7"></polygon><polygon points="108.75 346.85 243.21 346.85 243.21 332.68 192.88 332.68 175.96 223.78 113.88 223.78 108.75 346.85" style="fill:#dbdbdb"></polygon><polygon points="108.75 346.85 116.08 346.85 120.86 223.78 113.88 223.78 108.75 346.85" style="fill:#c7c7c7"></polygon></g><g id="freepik--Desk--inject-2"><rect x="69.16" y="392.76" width="24.02" height="4.22" style="fill:#455a64"></rect><polygon points="106.2 454.56 103.61 454.56 82.45 355.79 81.25 350.16 77.45 332.43 76.03 325.82 70.71 301.01 68.85 292.32 78.09 292.32 79.6 301.01 80.59 306.71 81.25 310.51 85.04 332.43 86.26 339.49 106.2 454.56" style="fill:#455a64"></polygon><polygon points="78.09 292.32 79.6 301.01 70.71 301.01 68.85 292.32 78.09 292.32" style="fill:#263238"></polygon><polygon points="86.26 339.49 82.45 355.79 81.25 350.16 77.45 332.43 76.03 325.82 80.59 306.71 81.25 310.51 85.04 332.43 86.26 339.49" style="fill:#263238"></polygon><polygon points="93.64 292.32 91.78 301.01 85.04 332.43 81.25 350.16 58.88 454.56 56.29 454.56 77.45 332.43 81.25 310.51 82.89 301.01 84.39 292.32 93.64 292.32" style="fill:#455a64"></polygon><polygon points="93.64 292.32 91.78 301.01 82.89 301.01 84.39 292.32 93.64 292.32" style="fill:#263238"></polygon><rect x="304.67" y="392.76" width="24.02" height="4.22" style="fill:#455a64"></rect><polygon points="341.71 454.56 339.12 454.56 317.96 355.79 316.76 350.16 312.96 332.43 311.54 325.82 306.22 301.01 304.36 292.32 313.6 292.32 315.11 301.01 316.1 306.71 316.76 310.51 320.55 332.43 321.77 339.49 341.71 454.56" style="fill:#455a64"></polygon><polygon points="313.6 292.32 315.11 301.01 306.22 301.01 304.36 292.32 313.6 292.32" style="fill:#263238"></polygon><polygon points="321.77 339.49 317.96 355.79 316.76 350.16 312.96 332.43 311.54 325.82 316.1 306.71 316.76 310.51 320.55 332.43 321.77 339.49" style="fill:#263238"></polygon><polygon points="329.15 292.32 327.29 301.01 320.55 332.43 316.76 350.16 294.39 454.56 291.8 454.56 312.96 332.43 316.76 310.51 318.4 301.01 319.9 292.32 329.15 292.32" style="fill:#455a64"></polygon><polygon points="329.15 292.32 327.29 301.01 318.4 301.01 319.9 292.32 329.15 292.32" style="fill:#263238"></polygon><rect x="50.86" y="285.97" width="296.29" height="6.35" style="fill:#455a64"></rect><rect x="42.21" y="273.84" width="313.59" height="12.13" style="fill:#37474f"></rect><rect x="175.02" y="270.38" width="77.12" height="3.46" style="fill:#455a64"></rect><rect x="213.33" y="270.38" width="38.81" height="3.46" style="fill:#37474f"></rect><polygon points="217.5 273.84 292.66 273.84 302.48 222.8 227.33 222.8 217.5 273.84" style="fill:#455a64"></polygon><path d="M255.42,248.32a4.12,4.12,0,0,0,4.17,4.57,5.09,5.09,0,0,0,5-4.57,4.13,4.13,0,0,0-4.18-4.58A5.09,5.09,0,0,0,255.42,248.32Z" style="fill:#fff"></path><rect x="73.77" y="232.14" width="43.08" height="41.39" transform="translate(190.62 505.67) rotate(180)" style="fill:#ebebeb"></rect><rect x="57.4" y="232.14" width="16.37" height="41.39" transform="translate(131.18 505.67) rotate(180)" style="fill:#c7c7c7"></rect><polygon points="116.85 252.84 73.77 252.84 107.42 253.9 116.85 252.84" style="fill:#c7c7c7"></polygon><polygon points="73.77 268.53 116.85 268.53 83.21 269.6 73.77 268.53" style="fill:#c7c7c7"></polygon><polygon points="116.85 241.27 89.56 241.27 113.82 242.14 116.85 241.27" style="fill:#c7c7c7"></polygon><polygon points="73.77 262.44 101.06 262.44 76.8 263.31 73.77 262.44" style="fill:#c7c7c7"></polygon><polygon points="106.52 236.66 75.74 236.66 80.87 237.18 106.52 236.66" style="fill:#c7c7c7"></polygon><polygon points="112.66 257.27 81.89 257.27 87.02 257.8 112.66 257.27" style="fill:#c7c7c7"></polygon><polygon points="93.74 245.21 73.77 245.21 70.21 246.6 93.74 245.21" style="fill:#ebebeb"></polygon><polygon points="122.35 245.21 102.39 245.21 98.82 246.6 122.35 245.21" style="fill:#dbdbdb"></polygon><polygon points="96.73 263.81 116.7 263.81 120.26 265.2 96.73 263.81" style="fill:#dbdbdb"></polygon><polygon points="73.77 259.09 57.74 259.09 54.18 260.48 73.77 259.09" style="fill:#c7c7c7"></polygon><polygon points="68.18 252.84 55.75 252.84 57.4 251.7 68.18 252.84" style="fill:#c7c7c7"></polygon></g><g id="freepik--Character--inject-2"><path d="M447.92,392.72s-3,41-3,41c0,8,.07,15.07.46,18.7a.13.13,0,0,0,0,.06A5.67,5.67,0,0,0,446,455l.05,0c2.38,1.63,66.51,3.83,68.77,3.15s.51-7.17-1.91-9.25S486.31,435,486.31,435l2.56-41Z" style="fill:#ad6359"></path><path d="M445,425.12v8.61c0,8,.07,15.07.46,18.7a.13.13,0,0,0,0,.06A11.39,11.39,0,0,0,446,455l.05,0c2.38,1.63,66.51,3.83,68.77,3.15s.51-7.17-1.91-9.25S486.31,435,486.31,435l.12-8.74Z" style="fill:#fff"></path><path d="M514.83,458.17c-2.27.68-66.39-1.51-68.77-3.15-.92-.6-1.15-10-1.09-21.29v-.35l41.39.95,0,.71s24.16,11.81,26.6,13.89S517.1,457.51,514.83,458.17Z" style="fill:#a6a6a6"></path><path d="M514.19,455.66c-10.8-.63-54.42-2.18-65.15-2-.08,0-.08.06,0,.06,10.69.87,54.32,2.06,65.14,2.1C514.41,455.84,514.42,455.68,514.19,455.66Z" style="fill:#263238"></path><path d="M489.79,435.28c-4.23-.94-9.45-.47-12.81,2.45-.13.12,0,.3.17.26a59.78,59.78,0,0,1,12.6-2.17A.27.27,0,0,0,489.79,435.28Z" style="fill:#263238"></path><path d="M492.79,437.23c-4.22-.94-9.45-.46-12.8,2.46-.13.11,0,.3.17.26a59.69,59.69,0,0,1,12.6-2.18A.27.27,0,0,0,492.79,437.23Z" style="fill:#263238"></path><path d="M495.8,439.19c-4.23-.94-9.45-.46-12.8,2.45-.13.12,0,.3.17.26a59.67,59.67,0,0,1,12.6-2.17A.27.27,0,0,0,495.8,439.19Z" style="fill:#263238"></path><path d="M442.49,435.5l44.89-.89s5.48-80.78,4.46-107.71c-1.11-29.25-13.68-116.28-13.68-116.28H440.25s9.69,87.37,9.9,116.64C450.34,354.38,442.49,435.5,442.49,435.5Z" style="fill:#37474f"></path><path d="M470.71,210.62,447.94,289.4c-2.69-37.28-7.69-78.78-7.69-78.78Z" style="fill:#263238"></path><path d="M447.45,214.91l2.41,26,2.23,26c1.42,17.34,2.78,34.68,3.81,52.06.25,4.34.41,8.7.34,13.07s-.26,8.7-.48,13.05q-.67,13-1.68,26t-2.1,26l-2.43,26,1.94-26q1-13,1.83-26c.55-8.68,1.14-17.35,1.54-26,.2-4.34.36-8.68.44-13s-.12-8.66-.38-13c-.95-17.36-2.32-34.7-3.59-52.05Z" style="fill:#263238"></path><path d="M485.51,427.12c-7-.06-5-.14-12-.13-3.43,0-26,.09-29.16.66a.07.07,0,0,0,0,.14c3.21.49,25.74,0,29.17-.05,7-.15,5-.19,12-.42A.1.1,0,0,0,485.51,427.12Z" style="fill:#263238"></path><path d="M375,370.74S353.3,405.94,353.28,406c-3.51,7.22-6.47,13.6-7.69,17.05a.14.14,0,0,0,0,.06,5.57,5.57,0,0,0-.55,2.49s0,0,0,.06c1.44,2.5,58.27,32.29,60.6,32.66s3.58-6.24,2.29-9.16S390,425.06,390,425.06l21.29-35.35Z" style="fill:#ad6359"></path><path d="M345,425.56a.07.07,0,0,0,0,.06c1.44,2.5,58.27,32.29,60.6,32.66s3.57-6.24,2.3-9.16-18-24.06-18-24.06l3.8-6.31c-9.29-4.95-26.17-13.64-36.65-19-2.29,3.7-3.84,6.24-3.84,6.25-3.52,7.21-6.48,13.59-7.69,17,0,0,0,0,0,.06A5.57,5.57,0,0,0,345,425.56Z" style="fill:#fff"></path><path d="M405.64,458.28c-2.33-.37-59.16-30.15-60.6-32.66-.57-.94,3.29-9.48,8.25-19.65a3.18,3.18,0,0,1,.16-.32l36.87,18.8-.34.62s16.66,21.13,17.95,24.05S408,458.66,405.64,458.28Z" style="fill:#a6a6a6"></path><path d="M406.15,455.74c-9.45-5.25-48.09-25.56-57.83-30-.08,0-.11,0,0,.06,9.26,5.42,48.06,25.41,57.79,30.14C406.28,456,406.35,455.85,406.15,455.74Z" style="fill:#263238"></path><path d="M393,426.79c-3.41-2.68-8.32-4.51-12.61-3.34-.16.05-.1.28.05.31a59.85,59.85,0,0,1,12.29,3.5A.27.27,0,0,0,393,426.79Z" style="fill:#263238"></path><path d="M394.87,429.86c-3.4-2.68-8.32-4.52-12.61-3.34-.16,0-.09.28.05.3a59.88,59.88,0,0,1,12.29,3.51A.27.27,0,0,0,394.87,429.86Z" style="fill:#263238"></path><path d="M396.73,432.92c-3.4-2.67-8.32-4.51-12.6-3.34-.17.05-.1.28,0,.31a60.48,60.48,0,0,1,12.29,3.5A.27.27,0,0,0,396.73,432.92Z" style="fill:#263238"></path><path d="M474.28,210.58v0c-.16.78-2.81,13.08-5.56,23.64-2,7.72-4,14.5-5.23,15.21-1.34.79-7.85,3.67-10,4.58,0,0-14.64,73.08-22.37,95.75-7.13,20.91-36.65,76.81-36.65,76.81L351.61,405s33.44-56.73,37-66.91c5.45-15.78,25.87-92.83,25.87-92.83s-.15-24.12,8-34.65Z" style="fill:#37474f"></path><path d="M393.8,418.26c-6.12-3.42-4.31-2.53-10.47-5.87-3-1.64-22.82-12.4-25.9-13.43-.06,0-.12.08-.06.12,2.58,2,22.57,12.38,25.61,14,6.22,3.23,4.47,2.24,10.73,5.4A.1.1,0,0,0,393.8,418.26Z" style="fill:#263238"></path><path d="M425.43,238.53a36.4,36.4,0,0,1,3.62-.59c1-.15,1.93-.32,2.88-.53a12.58,12.58,0,0,0,5.09-2.15c1.66-1.29,2.5-3.24,3.3-5.12.48-1.12,1-2.23,1.46-3.33.25-.54.49-1.08.74-1.61a16.92,16.92,0,0,0,.9-1.93c0-.09.19,0,.15,0a12.41,12.41,0,0,0-.41,1.39l-.48,1.61c-.3,1-.59,1.92-.91,2.87a22.36,22.36,0,0,1-2,5.05c-1.76,2.81-4.92,3.94-8.08,4.34-.91.12-1.82.18-2.73.23a19,19,0,0,1-3.46,0A.16.16,0,0,1,425.43,238.53Z" style="fill:#263238"></path><path d="M466.94,247.74A85.2,85.2,0,0,0,453.52,254a.15.15,0,0,0,.13.28c4.52-1.94,9.13-3.8,13.53-6A.3.3,0,0,0,466.94,247.74Z" style="fill:#263238"></path><path d="M468.3,216.78c0-.16-.28-.19-.28,0,0,5.37-.31,10.09-.76,15.11-.21,2.33-2.09,15.2-6.12,14.26-.68-.16-1-.82-1.13-1.84a15.73,15.73,0,0,1,.54-3.95c.44-2.69.8-5.4,1-8.12a73.73,73.73,0,0,0-.17-15.22.13.13,0,0,0-.26,0,139.4,139.4,0,0,1-1.23,21c-.5,3.35-2.19,8.38,1.31,8.9s5.87-7.92,6.31-10.23A77.18,77.18,0,0,0,468.3,216.78Z" style="fill:#263238"></path><path d="M461.24,246.46a23.27,23.27,0,0,0-.9,2.67,5.91,5.91,0,0,0-.38,2.19c0,.15.2.16.28.06a8,8,0,0,0,.94-2.13c.3-.82.63-1.64.91-2.48A.45.45,0,0,0,461.24,246.46Z" style="fill:#263238"></path><path d="M363.17,397.87c6.1-11.47,12.38-22.84,18.69-34.2,3.11-5.6,6.35-11.14,9.32-16.82A101.38,101.38,0,0,0,398,329.33q5.66-18.39,10.72-36.95t9.49-37.27c.75-3.12,1.56-6.24,2.16-9.39a28.71,28.71,0,0,0,0-9.61,30.51,30.51,0,0,1-.07-9,58.49,58.49,0,0,1,2.09-8.74c.47-1.51,1-3,1.5-4.5.06-.16.32-.09.27.08-1.85,6-3.74,12.15-3.34,18.55.19,3.07,1,6.09.95,9.19a43.79,43.79,0,0,1-1.55,9.08q-4.37,18.82-9.38,37.49t-10.6,37.16c-1.82,6-3.52,12.08-6.1,17.81s-5.85,11.15-8.93,16.62q-9.54,17-19.33,33.8-1.24,2.13-2.51,4.25C363.26,398.05,363.12,398,363.17,397.87Z" style="fill:#263238"></path><path d="M461.79,155.21c20-3,45.31-10.78,48.34-15.81,3.35-5.54,9.55-22.64,12.34-40.45.51-3.23-25.16-4-25.76-1.83-2.22,8.28-8.49,29-9.43,29.6-1.22.84-18,10.1-29.85,16.66C443.14,151.31,450.9,156.84,461.79,155.21Z" style="fill:#ad6359"></path><path d="M522.16,101.2c.52-1.52,5.47-13.64,5.19-20.66-.14-3.72-1.7-13.89-4-14.09-2.08-.17-2.33,2.72-2.33,2.72s-.76-4.53-3.65-4.74-3.07,4.69-3.07,4.69-1.12-4.59-4-4.6-2.25,5-2.25,5-.83-4.25-3.22-3.25c-2.87,1.2-.46,8.86-1,12.94-.12.93-3.94,18.59-3.94,18.59Z" style="fill:#ad6359"></path><path d="M507.92,69.58c1.76,5.63,1.56,8.4.06,14a.09.09,0,0,0,.17.06c2-5.36,2.72-8.8,0-14.18C508.06,69.22,507.84,69.31,507.92,69.58Z" style="fill:#263238"></path><path d="M514.18,69.2c1.31,6,1.12,9,0,15,0,.08.13.12.15,0,1.61-5.79,2.28-9.23.18-15.07C514.39,68.92,514.12,68.93,514.18,69.2Z" style="fill:#263238"></path><path d="M521,69.46c.86,5.91.78,9.21-1.07,14.89a.11.11,0,0,0,.21.08c2.45-5.61,2.57-9.73,1-15C521.06,69.09,520.93,69.08,521,69.46Z" style="fill:#263238"></path><path d="M495.81,101.43s-2.15-8.59-2.12-11.92,4.67-15.69,7.39-14.84c3.53,1.1,2.25,8.77,1.13,12.44,0,0,8.15,2.54,8.43,8.24S495.81,101.43,495.81,101.43Z" style="fill:#ad6359"></path><path d="M502,75.29c2.49,3.32.72,8-.1,11.69a.34.34,0,0,0,.36.43c3.34,1.29,7.69,4.09,8.59,7.77a.09.09,0,0,0,.17,0c-.43-4.07-4.47-7.17-8.23-8.35.9-3.72,2.47-8.54-.76-11.54C502,75.25,501.94,75.27,502,75.29Z" style="fill:#263238"></path><path d="M493.92,104l27.66,6.77S513.27,139.21,509,142.3,474.56,155.92,457.16,156c-5.08,0-15.55-3.88-.58-13s29.49-17.11,30.06-17.75S493.92,104,493.92,104Z" style="fill:#263238"></path><path d="M493.13,110.69a61.72,61.72,0,0,0,6,1.74c2.09.57,4.19,1.07,6.29,1.58s10.56,2.26,12.67,2.7a.07.07,0,1,0,0-.14c-2.08-.57-10.35-2.83-12.41-3.32s-4.12-1-6.19-1.43-4.24-1-6.37-1.22C493.11,110.6,493.08,110.67,493.13,110.69Z" style="fill:#263238"></path><path d="M471.83,154.31A82.83,82.83,0,0,1,457.16,156c-4.75,0-14.21-3.4-3.18-11.33Z" style="opacity:0.1"></path><path d="M422.41,210.58l55.75,0a24,24,0,0,0-.89-4.93c-3.42-14-14.33-53.58-19.43-61-2.84-4.14-13.61-5.07-18.06-.88-8.81,8.28-15.87,45.18-17.89,60.29A13.12,13.12,0,0,0,422.41,210.58Z" style="fill:#ebebeb"></path><path d="M441,142.89c.07,1,4.43,23.87,4.57,27.62S441.32,244,441.32,244l-29.42-2.33s7.11-34.58,7.35-35.1,10.84-48.66,14.5-55.42S441,142.89,441,142.89Z" style="fill:#263238"></path><path d="M455.72,142.26s7.76,31,9.31,36,10,65.11,10,65.11l10.32-3.69s-13-61.3-24.19-90.79C459.65,145,455.72,142.26,455.72,142.26Z" style="fill:#263238"></path><path d="M457.23,143c.77,0,3.78,3.08,4.1,3.94s8.21,44,7.4,48.84-16.15,46.66-16.15,46.66L447,240s16-42.32,16.48-43.87-5.79-50-6-51.24S457.23,143,457.23,143Z" style="fill:#263238"></path><path d="M457.23,143c.77,0,3.78,3.08,4.1,3.94s8.21,44,7.4,48.84-16.15,46.66-16.15,46.66L447,240s16-42.32,16.48-43.87-5.79-50-6-51.24S457.23,143,457.23,143Z" style="opacity:0.2"></path><path d="M441.39,143c-.63-.45-4.86.4-5.61.92s-20,33.06-22.12,37.55-20,46.63-20,46.63l6,1.11s17.67-42.94,18.12-44.51,21.46-39.44,22.31-40.33Z" style="fill:#263238"></path><path d="M441.39,143c-.63-.45-4.86.4-5.61.92s-20,33.06-22.12,37.55-20,46.63-20,46.63l6,1.11s17.67-42.94,18.12-44.51,21.46-39.44,22.31-40.33Z" style="opacity:0.2"></path><rect x="399.74" y="223.09" width="38.03" height="60.36" transform="translate(93.55 618.99) rotate(-79.52)" style="fill:#263238"></rect><rect x="399.74" y="223.09" width="38.03" height="60.36" transform="translate(93.55 618.99) rotate(-79.52)" style="opacity:0.1"></rect><rect x="411.64" y="213.2" width="17.91" height="60.36" transform="translate(104.78 612.69) rotate(-79.52)" style="opacity:0.1"></rect><rect x="390.01" y="228.93" width="63.21" height="17.75" transform="translate(50.28 -72.72) rotate(10.48)" style="fill:#263238"></rect><rect x="390.01" y="228.93" width="63.21" height="17.75" transform="translate(50.28 -72.72) rotate(10.48)" style="opacity:0.1"></rect><polygon points="433.07 224.34 431.9 230.68 429.03 230.15 429.7 226.54 418.77 224.52 418.1 228.13 415.24 227.6 416.41 221.26 433.07 224.34" style="fill:#263238"></polygon><rect x="397.42" y="238.5" width="4.12" height="8.48" transform="matrix(0.98, 0.18, -0.18, 0.98, 50.81, -68.61)" style="fill:#263238"></rect><rect x="438.47" y="246.09" width="4.12" height="8.48" transform="translate(52.87 -75.94) rotate(10.48)" style="fill:#263238"></rect><path d="M429.86,152.43c-5.47,5.56-26.49,31.1-27.38,37.38-1.37,9.54,13.5,40.05,17.45,46.67,1.72,2.89,23.83-11.2,22.22-14.41-1.09-2.16-16.33-25.35-16.63-28s8.51-25.43,14.23-37C445.19,146,441.44,140.65,429.86,152.43Z" style="fill:#ad6359"></path><path d="M461.79,248.89a4.1,4.1,0,0,1-4.36,1.72,6.13,6.13,0,0,1-1.39,3.91c-1.68,1.87-5.35,0-5.35,0a7.52,7.52,0,0,1-2.11,3.89c-1.79,1.63-5.75.32-5.75.32a6.6,6.6,0,0,1-4,2.25c-4.21.49-8.25-4.58-10.85-7.77s-7-14.67-8-16.78l20.34-16.84s15.72,11,18.24,15.18C460.63,238.34,463.47,246.15,461.79,248.89Z" style="fill:#ad6359"></path><path d="M457.64,250.2c-1.36-4.29-3.92-7.95-6.26-11.74-.05-.09-.18,0-.13.08,2.37,3.75,4,7.91,6.19,11.75C457.5,250.39,457.67,250.31,457.64,250.2Z" style="fill:#263238"></path><path d="M450.91,254.28a11.58,11.58,0,0,0-1.57-2.64c-.61-.89-1.25-1.78-1.89-2.65-1.29-1.75-2.63-3.48-4-5.16-.06-.07-.19,0-.13.08q1.94,2.63,3.76,5.32c.6.9,1.2,1.81,1.79,2.72a14.16,14.16,0,0,0,1.79,2.49A.16.16,0,0,0,450.91,254.28Z" style="fill:#263238"></path><path d="M442.77,258.7a8.32,8.32,0,0,0-1.53-2.3c-.61-.79-1.21-1.57-1.8-2.37-1.2-1.58-2.39-3.17-3.53-4.79-.05-.08-.19,0-.13.08,1.15,1.66,2.27,3.33,3.44,5,.57.81,1.14,1.61,1.72,2.41a7.44,7.44,0,0,0,1.76,2.06A.05.05,0,0,0,442.77,258.7Z" style="fill:#263238"></path><path d="M442.15,218.74,417.81,237s-17.06-31.08-16.12-46.79c.39-6.48,20-30,28.78-39s17.4-10.73,9.69,6.54-14,32.89-13.4,34S442.15,218.74,442.15,218.74Z" style="fill:#263238"></path><path d="M437.52,215.22a61.44,61.44,0,0,0-5.23,3.39c-1.79,1.21-3.53,2.47-5.28,3.72s-8.58,6.49-10.29,7.79c-.07.06,0,.18.09.12,1.79-1.2,8.87-6,10.58-7.2s3.43-2.46,5.11-3.74a61,61,0,0,0,5.06-4S437.57,215.19,437.52,215.22Z" style="fill:#263238"></path><path d="M419.4,235.8l-1.54,1.26-.06.05-.06-.08a19.8,19.8,0,0,1-2.14-3.4,16.6,16.6,0,0,1-1.44-3.76,26.82,26.82,0,0,1,2.1,3.42,25,25,0,0,1,1.62,3.66l-.12,0Z" style="fill:#263238"></path><path d="M440.62,219.89l1.51-1.16v0c-2.75-4.27-5.41-8.58-8-12.92-1.32-2.17-2.59-4.37-3.86-6.56s-2.53-4.38-3.61-6.74a4.6,4.6,0,0,1-.18-.49,1.28,1.28,0,0,1,0-.61,5.85,5.85,0,0,1,.21-1c.17-.63.37-1.23.57-1.84.41-1.2.85-2.4,1.3-3.58.91-2.37,1.83-4.74,2.82-7.07,1.95-4.69,4-9.34,6.09-13.95l-5.56,14.16c-.9,2.37-1.84,4.72-2.71,7.1-.44,1.18-.87,2.37-1.26,3.57-.2.6-.39,1.2-.55,1.8a7.24,7.24,0,0,0-.18.88.61.61,0,0,0,0,.33c0,.1.1.26.14.39,1,2.26,2.31,4.48,3.53,6.69l3.77,6.6,7.56,13.19v0h0Z" style="fill:#263238"></path><path d="M435.28,169.05c.39-.47.79-.92,1.14-1.41s.7-1,1-1.5a5,5,0,0,1-.84,1.65A5.35,5.35,0,0,1,435.28,169.05Z" style="fill:#263238"></path><path d="M454.34,151.84c-3.53.66-10-5.45-12.16-9.89-.14-.3.46-3.4,1-7.21.33-2.31.65-4.89.76-7.26l14.72,4.35a37.85,37.85,0,0,0-1.89,9,5.16,5.16,0,0,0,.06,1c0,.05,0,.1,0,.16C457.07,143.88,457.76,151.21,454.34,151.84Z" style="fill:#ad6359"></path><path d="M458.68,131.83a41.3,41.3,0,0,0-1.76,7.53c-6.88,4.21-14.31-.87-14.31-.87.18-1.09.38-2.37.59-3.75.33-2.3.65-4.89.76-7.26Z" style="fill:#263238"></path><path d="M460.81,110.46c1.91,5.32-.18,21-3.85,24.69-5.32,5.3-14.4,6.23-19-.25-4.46-6.28-1.37-26.71,2.76-30.07C446.81,99.87,458,102.62,460.81,110.46Z" style="fill:#ad6359"></path><path d="M446,121s.08.06.07.1c-.17,1.06-.18,2.29.73,2.77,0,0,0,.07,0,.06C445.63,123.58,445.67,121.94,446,121Z" style="fill:#263238"></path><path d="M447.08,120c1.72.09,1.42,3.53-.18,3.44S445.64,119.91,447.08,120Z" style="fill:#263238"></path><path d="M440.09,120.35s-.09,0-.09.08c-.06,1.07-.31,2.28-1.3,2.55,0,0,0,.06,0,.06C439.89,123,440.2,121.37,440.09,120.35Z" style="fill:#263238"></path><path d="M439.24,119.15c-1.7-.28-2.14,3.14-.56,3.4S440.66,119.39,439.24,119.15Z" style="fill:#263238"></path><path d="M448.58,118.53a13.68,13.68,0,0,1-1.29-.58,2.32,2.32,0,0,1-1.2-.85.74.74,0,0,1,.19-.87,1.79,1.79,0,0,1,1.83,0,2.64,2.64,0,0,1,1.43,1.28A.77.77,0,0,1,448.58,118.53Z" style="fill:#263238"></path><path d="M438.07,117.31a13,13,0,0,0,1.39-.24,2.21,2.21,0,0,0,1.38-.51.72.72,0,0,0,0-.88,1.82,1.82,0,0,0-1.77-.5,2.61,2.61,0,0,0-1.7.87A.78.78,0,0,0,438.07,117.31Z" style="fill:#263238"></path><path d="M446.39,130.73c-.28.22-.56.54-.95.54a2.7,2.7,0,0,1-1.12-.37s-.07,0-.05,0a1.43,1.43,0,0,0,1.3.7,1.14,1.14,0,0,0,.92-.87C446.51,130.72,446.43,130.69,446.39,130.73Z" style="fill:#263238"></path><path d="M445.56,127.44a3.65,3.65,0,0,1-2.56,1.4,4.44,4.44,0,0,1-1.31-.06.7.7,0,0,1-.25-.05l-.23,0a.27.27,0,0,1-.19-.26h0a.43.43,0,0,1,0-.11h0v-.1c.05-.82.24-2.06.24-2.06-.31.13-1.9.68-1.84.25a54.74,54.74,0,0,1,2.38-10.83.1.1,0,0,1,.19,0c-.37,3.41-1.34,6.73-1.76,10.14a6.62,6.62,0,0,1,1.75-.37c.12,0-.41,2.39-.4,2.76v0a5,5,0,0,0,3.85-.83C445.55,127.29,445.63,127.36,445.56,127.44Z" style="fill:#263238"></path><path d="M442.17,128.67a4.23,4.23,0,0,0,1.66,1.34,1.87,1.87,0,0,0,1.15.1c.84-.2.88-1,.74-1.63a4.48,4.48,0,0,0-.35-1A5.49,5.49,0,0,1,442.17,128.67Z" style="fill:#263238"></path><path d="M443.83,130a1.87,1.87,0,0,0,1.15.1c.84-.2.88-1,.74-1.63A2,2,0,0,0,443.83,130Z" style="fill:#ff98b9"></path><path d="M461.87,124c-4.11.4-6.39-4.45-5.54-8.43,0,0-10.9,1.75-11.66-7a10,10,0,0,1-7.49,4.31l-.66,3.1c-1.13-.29-2.41-3.45.27-6a10.48,10.48,0,0,1,3.23-7.1,6,6,0,0,1,6.41-1.07A9,9,0,0,1,453,99.91a7.71,7.71,0,0,1,5.8,4s5.45.89,6.48,4.72a8,8,0,0,1-.89,6.46s1.4,1.48.8,4.79C464.79,122,463.1,123.85,461.87,124Z" style="fill:#263238"></path><path d="M444.89,107.73a10.19,10.19,0,0,0,0,2.14,9,9,0,0,0,.45,2.07A5.6,5.6,0,0,0,448,115a9.08,9.08,0,0,0,4.07.9c.7,0,1.42,0,2.13-.11s1.42-.2,2.14-.28c-.69.19-1.4.35-2.1.52s-1.44.17-2.17.26a8.84,8.84,0,0,1-4.31-.85,5.77,5.77,0,0,1-2.74-3.41A8.71,8.71,0,0,1,444.89,107.73Z" style="fill:#263238"></path><path d="M439.38,113a11.35,11.35,0,0,0,3.27-1.88,6.77,6.77,0,0,0,1.25-1.37,7.93,7.93,0,0,0,.87-1.69,4.52,4.52,0,0,1-.54,1.89,5,5,0,0,1-1.25,1.56,6.66,6.66,0,0,1-1.69,1A6.35,6.35,0,0,1,439.38,113Z" style="fill:#263238"></path><path d="M446.56,126.43a4.62,4.62,0,0,1-3.2-5.68h0a4.6,4.6,0,1,1,4.33,5.84A4.47,4.47,0,0,1,446.56,126.43ZM444,120.92a4,4,0,1,0,4.91-2.77,4.08,4.08,0,0,0-1-.15A4,4,0,0,0,444,120.92Z" style="fill:#263238"></path><path d="M436.93,125.05c-1.87-.26-3.1-2.52-2.75-5a5.52,5.52,0,0,1,1.41-3.05,3,3,0,0,1,2.62-1,3.05,3.05,0,0,1,2.24,1.71A5.49,5.49,0,0,1,441,121c-.34,2.38-2,4.15-3.74,4.11Zm-.9-7.66a4.88,4.88,0,0,0-1.24,2.71c-.31,2.18.69,4.12,2.23,4.34s3-1.38,3.34-3.56a4.9,4.9,0,0,0-.45-2.95,2.46,2.46,0,0,0-1.78-1.39l-.24,0A2.55,2.55,0,0,0,436,117.39Z" style="fill:#263238"></path><path d="M443.44,121.3l.45-.41c-.61-.68-2.1-1.68-3.38-.65l.39.48C442.05,119.79,443.38,121.24,443.44,121.3Z" style="fill:#263238"></path><path d="M462.67,125.36l.58-.2c-.1-.27-1-2.66-2.3-3.07s-8.6-.8-8.95-.82l0,.62a79,79,0,0,1,8.8.79C461.65,123,462.44,124.71,462.67,125.36Z" style="fill:#263238"></path><path d="M457.14,123.32s3.38-5.14,5.7-3.95-.12,8.58-2.77,9.65a2.74,2.74,0,0,1-3.71-1.36Z" style="fill:#ad6359"></path><path d="M462.09,121.47s.05,0,0,.07c-1.87.82-2.81,2.59-3.45,4.42a1.51,1.51,0,0,1,2.24-.48.06.06,0,0,1,0,.11,1.67,1.67,0,0,0-1.84.64,8,8,0,0,0-.84,1.52c-.08.17-.39.09-.33-.11v0C457.75,125.2,459.52,121.78,462.09,121.47Z" style="fill:#263238"></path><path d="M456.93,142.5l-3.59,8.83-10.95-11.25-3.13,3.58s10.67,17.84,10.74,17l3.69-7.61,5.24,5.33-.37-13.33Z" style="fill:#ebebeb"></path><path d="M459.12,151.82c-.13-2.19-.21-4.41-.44-6.6,0-.08-.13-.12-.15,0-.45,2.12.1,10.52.08,12.54l0,0c-.22-.23-4.86-4.69-4.9-4.62-.8,1.21-3.51,6.75-3.69,7.25-1.69-2.83-8.16-13.14-10.16-15.82a.08.08,0,1,0-.13.08c1.49,3,10.05,16.86,10.18,16.83a85.35,85.35,0,0,0,3.85-8.05c.79,1,5.47,6,5.49,5.68A69.92,69.92,0,0,0,459.12,151.82Z" style="fill:#263238"></path></g><g id="freepik--Clock--inject-2"><circle cx="106.52" cy="99.54" r="35.01" style="fill:#263238"></circle><circle cx="108.12" cy="100.32" r="33.41" transform="translate(-11.22 13.65) rotate(-6.87)" style="opacity:0.1"></circle><circle cx="108.12" cy="100.32" r="31.3" transform="translate(-29.59 47.5) rotate(-21.87)" style="fill:#fff"></circle><path d="M138.71,93.68c-14.25,8.63-37.68,22.8-50.77,30.57a31.34,31.34,0,0,1-8.55-11.5l43.3-40.14A31.38,31.38,0,0,1,138.71,93.68Z" style="fill:#ebebeb;opacity:0.5"></path><path d="M139.4,101.41a31.17,31.17,0,0,1-2.07,10.17l-39,18.47a31.7,31.7,0,0,1-4.93-2.12C105.15,121.11,126.7,108.71,139.4,101.41Z" style="fill:#ebebeb;opacity:0.5"></path><rect x="107.82" y="71.29" width="0.6" height="4.74" style="fill:#c7c7c7"></rect><rect x="94.49" y="74.87" width="0.61" height="4.74" transform="translate(-25.92 57.74) rotate(-30)" style="fill:#c7c7c7"></rect><rect x="84.73" y="84.62" width="0.6" height="4.74" transform="translate(-32.82 117.13) rotate(-60)" style="fill:#c7c7c7"></rect><rect x="79.09" y="100.02" width="4.74" height="0.6" style="fill:#c7c7c7"></rect><rect x="82.67" y="113.35" width="4.74" height="0.6" transform="translate(-45.43 57.74) rotate(-30)" style="fill:#c7c7c7"></rect><rect x="92.42" y="123.1" width="4.74" height="0.61" transform="translate(-59.46 143.89) rotate(-60.03)" style="fill:#c7c7c7"></rect><rect x="107.82" y="124.6" width="0.6" height="4.74" style="fill:#c7c7c7"></rect><rect x="121.14" y="121.03" width="0.61" height="4.74" transform="matrix(0.87, -0.5, 0.5, 0.87, -45.43, 77.26)" style="fill:#c7c7c7"></rect><rect x="130.9" y="111.28" width="0.6" height="4.74" transform="matrix(0.5, -0.87, 0.87, 0.5, -32.82, 170.45)" style="fill:#c7c7c7"></rect><rect x="132.4" y="100.02" width="4.74" height="0.6" style="fill:#c7c7c7"></rect><rect x="128.83" y="86.69" width="4.74" height="0.6" transform="translate(-25.92 77.27) rotate(-30)" style="fill:#c7c7c7"></rect><rect x="119.08" y="76.94" width="4.74" height="0.61" transform="translate(-6.13 143.86) rotate(-60.03)" style="fill:#c7c7c7"></rect><polygon points="126.73 80.7 105.51 100.47 107.63 102.55 127.31 81.26 126.73 80.7" style="fill:#455a64"></polygon><polygon points="102.11 79.79 107.1 102.38 109.94 101.54 102.88 79.56 102.11 79.79" style="fill:#263238"></polygon><path d="M107.4,99.6a1,1,0,1,0,1.44,0A1,1,0,0,0,107.4,99.6Z" style="fill:#263238"></path></g></svg>